<svg width="20" height="20" viewBox="0 0 20 20" fill="none" xmlns="http://www.w3.org/2000/svg">
<path d="M16.1905 10.9508C16.1905 10.3018 16.4501 9.71342 16.871 9.28393H10.4762C9.55571 9.28393 8.80952 8.53764 8.80952 7.61703V0C3.92271 0.126256 0 4.12787 0 9.0458C0 13.8836 3.79592 17.8347 8.57143 18.0824V16.6659C8.57143 15.3508 9.63743 14.2846 10.9524 14.2846C11.4884 14.2846 11.983 14.4618 12.381 14.7607V13.8084C12.381 12.4932 13.447 11.4271 14.7619 11.4271C15.2979 11.4271 15.7926 11.6043 16.1905 11.9032V10.9508ZM10.2381 0.0745628V7.61703C10.2381 7.74858 10.3447 7.85516 10.4762 7.85516H18.0176C17.486 3.80993 14.2828 0.606246 10.2381 0.0745628ZM18.5714 9.52235C17.7825 9.52235 17.1429 10.1621 17.1429 10.9511V18.5712C17.1429 19.3603 17.7825 20 18.5714 20C19.3604 20 20 19.3603 20 18.5712V10.9511C20 10.1621 19.3604 9.52235 18.5714 9.52235ZM10.9524 15.2374C10.1634 15.2374 9.52381 15.8771 9.52381 16.6662V18.5712C9.52381 19.3603 10.1634 20 10.9524 20C11.7413 20 12.381 19.3603 12.381 18.5712V16.6662C12.381 15.8771 11.7413 15.2374 10.9524 15.2374ZM13.3333 13.8087C13.3333 13.0196 13.973 12.3799 14.7619 12.3799C15.5509 12.3799 16.1905 13.0196 16.1905 13.8087V18.5712C16.1905 19.3603 15.5509 20 14.7619 20C13.973 20 13.3333 19.3603 13.3333 18.5712V13.8087Z" fill="#FEF4E5"/>
</svg>
